<?xml version="1.0" encoding="UTF-8"?>
<svg version="1.1" xmlns="http://www.w3.org/2000/svg" width="1350" height="595">
<path d="M0 0 C445.5 0 891 0 1350 0 C1350 196.35 1350 392.7 1350 595 C904.5 595 459 595 0 595 C0 398.65 0 202.3 0 0 Z " fill="#F1F1F1" transform="translate(0,0)"/>
<path d="M0 0 C8.40586115 -0.02317503 16.81170894 -0.04094143 25.21759415 -0.05181217 C29.12082295 -0.05702969 33.02402988 -0.06410684 36.92724609 -0.07543945 C40.69438644 -0.08630847 44.46150576 -0.09228537 48.22866058 -0.09487724 C49.66555869 -0.09672424 51.10245564 -0.10033095 52.53934479 -0.10573006 C54.55258562 -0.11299363 56.56584763 -0.11340851 58.57910156 -0.11352539 C59.72493713 -0.115746 60.87077271 -0.11796661 62.05133057 -0.12025452 C64.57504407 -0.01733082 66.59378446 0.30453561 69 1 C70.64970551 1.13229012 72.303065 1.22273007 73.95703125 1.28125 C75.37918945 1.33732422 75.37918945 1.33732422 76.83007812 1.39453125 C77.81427734 1.42933594 78.79847656 1.46414062 79.8125 1.5 C87.42619396 1.77245823 94.82739212 2.1297366 102.25 4 C106.56419281 5.00124611 110.81066767 5.39103109 115.2265625 5.65625 C118 6 118 6 121.31640625 6.9609375 C125.32455866 8.09155101 129.18655633 8.65848922 133.3125 9.125 C134.02728516 9.21136719 134.74207031 9.29773438 135.47851562 9.38671875 C139.22904432 9.84255105 139.22904432 9.84255105 143 10 C143 10.66 143 11.32 143 12 C144.0828125 11.70802734 144.0828125 11.70802734 145.1875 11.41015625 C148.34436309 10.94978038 150.01668362 11.38867783 153 12.4375 C156.51984115 13.66394465 159.27638221 14.10497762 163 14 C164.67099977 14.31088368 166.33871537 14.64080332 168 15 C168.66 15 169.32 15 170 15 C170 15.66 170 16.32 170 17 C173.96 17.33 177.92 17.66 182 18 C182 18.66 182 19.32 182 20 C182.9746521 20.16218018 182.9746521 20.16218018 183.96899414 20.32763672 C192.32037807 21.77444975 200.45803292 23.82495699 208.65429688 25.96484375 C209.67458984 26.22652344 210.69488281 26.48820312 211.74609375 26.7578125 C212.66060303 26.9964502 213.5751123 27.23508789 214.51733398 27.48095703 C217.22983404 28.13642817 217.22983404 28.13642817 221 28 C221 28.66 221 29.32 221 30 C221.65226562 29.91621094 222.30453125 29.83242187 222.9765625 29.74609375 C227.88249144 29.17445896 232.13127185 28.84688018 237 30 C236.67 31.32 236.34 32.64 236 34 C237.19625 34.103125 238.3925 34.20625 239.625 34.3125 C243.59467984 34.82630608 246.62105611 35.74737074 250 38 C251.3125 40.625 251.3125 40.625 252 43 C252.33 43.33 252.66 43.66 253 44 C253.375 46.75 253.375 46.75 253 50 C250.875 52.4375 250.875 52.4375 248 55 C246.98344633 56.15227156 245.98395213 57.31976726 245 58.5 C244.48695313 59.098125 243.97390625 59.69625 243.4453125 60.3125 C242.25208966 61.70566829 241.06298893 63.10236596 239.875 64.5 C231.73680405 71.57669213 223.6603306 75.05180467 213.01953125 75.5703125 C212.13271164 75.61566132 211.24589203 75.66101013 210.3321991 75.70773315 C208.45359029 75.80230559 206.57486683 75.89462331 204.69604492 75.98486328 C201.84050205 76.12363914 198.9857523 76.27429009 196.13085938 76.42578125 C194.30211929 76.51635392 192.47334404 76.60622001 190.64453125 76.6953125 C189.79840775 76.74108429 188.95228424 76.78685608 188.08052063 76.83401489 C182.91094863 77.06928593 178.11786716 76.78193213 173 76 C172.67 76.66 172.34 77.32 172 78 C172 77.34 172 76.68 172 76 C168.06924356 76.57452746 168.06924356 76.57452746 165 79 C165 78.01 165 77.02 165 76 C160.70805854 76.13837796 156.41653071 76.28695939 152.125 76.4375 C150.90167969 76.47681641 149.67835938 76.51613281 148.41796875 76.55664062 C147.25136719 76.59853516 146.08476563 76.64042969 144.8828125 76.68359375 C143.80402832 76.72025146 142.72524414 76.75690918 141.61376953 76.79467773 C139.01930464 76.83376643 139.01930464 76.83376643 137 78 C135.03637583 78.08631264 133.06974573 78.10707081 131.10424805 78.09765625 C129.86503098 78.09435303 128.6258139 78.0910498 127.3490448 78.08764648 C126.68386526 78.08352753 126.01868572 78.07940857 125.33334923 78.07516479 C123.24190117 78.06237885 121.15051682 78.05587775 119.05903625 78.05102539 C113.85400134 78.03766005 108.64902536 78.01369696 103.44403076 77.98962402 C99.06108227 77.96970535 94.67815808 77.95413089 90.29517555 77.94406128 C88.25652843 77.9376794 86.2179823 77.92516245 84.17936707 77.91235352 C77.08347866 77.89395374 70.10821878 78.16651254 63.03956604 78.77514648 C58.3688985 79.1206616 53.71981175 79.10515155 49.0390625 79.0625 C48.04659515 79.05871338 47.05412781 79.05492676 46.03158569 79.05102539 C41.86393691 79.03501278 37.69639431 79.00709645 33.52880859 78.97949219 C19.428997 78.8945401 5.41107767 79.18977968 -8.67071533 79.91015625 C-10.79465509 79.99207956 -12.90009714 79.99940445 -15.02490234 79.96875 C-17.9291316 79.78215142 -17.9291316 79.78215142 -20 81 C-20 80.34 -20 79.68 -20 79 C-23.89213533 79.12033543 -27.7841232 79.24465664 -31.67602539 79.37231445 C-33.63356265 79.43575206 -35.59119486 79.49623818 -37.54882812 79.55664062 C-39.44858398 79.61948242 -39.44858398 79.61948242 -41.38671875 79.68359375 C-42.53358154 79.72025146 -43.68044434 79.75690918 -44.86206055 79.79467773 C-48.28438639 79.93285247 -51.68430226 80.22797432 -55.09643555 80.52294922 C-62.10421216 81.07423698 -69.04576988 81.06934297 -76.0703125 80.94921875 C-77.99639847 80.92091728 -77.99639847 80.92091728 -79.96139526 80.89204407 C-82.64882823 80.85152595 -85.33613371 80.80636135 -88.0234375 80.75805664 C-91.46526711 80.69681741 -94.90712991 80.65019991 -98.34922981 80.60722637 C-101.65223886 80.56346755 -104.95499762 80.50555187 -108.2578125 80.44921875 C-109.49209991 80.43453049 -110.72638733 80.41984222 -111.99807739 80.40470886 C-113.13711517 80.38161148 -114.27615295 80.3585141 -115.44970703 80.3347168 C-116.4519632 80.31837692 -117.45421936 80.30203705 -118.48684692 80.28520203 C-121 80 -121 80 -124 78 C-123.51634067 72.55883255 -123.51634067 72.55883255 -121.43359375 70.3046875 C-118.06782933 68.50024879 -115.01729733 68.76190087 -111.3125 68.9375 C-105.19227262 69.09855862 -99.93378999 68.69536857 -94 67 C-93.505 65.02 -93.505 65.02 -93 63 C-92.34 63 -91.68 63 -91 63 C-90.34 61.68 -89.68 60.36 -89 59 C-88.34 59 -87.68 59 -87 59 C-87 57.02 -87 55.04 -87 53 C-89.97 53 -92.94 53 -96 53 C-96 52.34 -96 51.68 -96 51 C-96.928125 51.2784375 -96.928125 51.2784375 -97.875 51.5625 C-100 52 -100 52 -102 51 C-104.14404169 50.90293287 -106.29126751 50.87021464 -108.4375 50.875 C-109.59121094 50.87242187 -110.74492188 50.86984375 -111.93359375 50.8671875 C-115.04125667 50.86104078 -115.04125667 50.86104078 -118 52 C-119.58335183 52.01937668 -121.16753851 51.99401648 -122.75 51.9375 C-127.27361172 51.87797879 -130.72855143 52.57618381 -135 54 C-135.66 54 -136.32 54 -137 54 C-138.62514468 55.45833358 -138.62514468 55.45833358 -140 57 C-140.33 56.01 -140.66 55.02 -141 54 C-143.45224694 54.10613836 -143.45224694 54.10613836 -146 55 C-147.30514736 57.21776622 -147.30514736 57.21776622 -148 60 C-148.61998741 62.01495907 -149.27954236 64.0187415 -150 66 C-150.99 66.495 -150.99 66.495 -152 67 C-151.7525 67.7425 -151.505 68.485 -151.25 69.25 C-151 72 -151 72 -152.25 74.1875 C-156.49235454 76.98359731 -161.04176244 77.28967093 -166 78 C-166.85722656 78.17144531 -167.71445312 78.34289062 -168.59765625 78.51953125 C-175.72099477 79.94419895 -183.04356719 80.24495879 -190.27734375 80.71875 C-192.962676 80.83427913 -192.962676 80.83427913 -195 82 C-195 81.34 -195 80.68 -195 80 C-196.485 80.495 -196.485 80.495 -198 81 C-200.26171875 80.00390625 -200.26171875 80.00390625 -202.6875 78.5625 C-203.89986328 77.85287109 -203.89986328 77.85287109 -205.13671875 77.12890625 C-205.75160156 76.75636719 -206.36648438 76.38382812 -207 76 C-204.86374392 69.59123176 -195.82261319 66.79620633 -190.1015625 63.91796875 C-188 63 -188 63 -186 63 C-185.67 62.01 -185.34 61.02 -185 60 C-182.78515625 59.2265625 -182.78515625 59.2265625 -180.0625 58.625 C-175.89623034 57.64429463 -175.89623034 57.64429463 -173.375 54.3125 C-173.189375 53.1678125 -173.189375 53.1678125 -173 52 C-172.01 52.2475 -171.02 52.495 -170 52.75 C-165.24058497 53.44508698 -161.94451319 51.49586454 -158 49 C-157.360625 48.46375 -156.72125 47.9275 -156.0625 47.375 C-153.27533 45.51688667 -150.50861179 45.17294375 -147.25 44.53515625 C-144.23595336 43.81827363 -141.70655407 42.48216056 -139 41 C-138.01 40.67 -137.02 40.34 -136 40 C-135.505 39.01 -135.505 39.01 -135 38 C-132.6693782 37.64820803 -130.33564933 37.31669821 -128 37 C-125.84971696 36.05021103 -125.84971696 36.05021103 -124 35 C-122.948125 34.7525 -122.948125 34.7525 -121.875 34.5 C-119.77320517 34.10722935 -119.77320517 34.10722935 -118 32 C-117.01 31.505 -117.01 31.505 -116 31 C-114.86649466 28.98330173 -114.86649466 28.98330173 -114 27 C-113.01 27.66 -112.02 28.32 -111 29 C-111.33 29.66 -111.66 30.32 -112 31 C-109.6568787 30.74438677 -107.32156597 30.40729228 -105 30 C-104.67 29.34 -104.34 28.68 -104 28 C-103.34 28.33 -102.68 28.66 -102 29 C-101.67 28.34 -101.34 27.68 -101 27 C-99.41025582 26.51616481 -97.81582694 26.04503059 -96.20703125 25.62890625 C-93.68068317 24.90900883 -91.26748922 23.99688808 -88.8125 23.0625 C-83.8539486 21.22270644 -78.87868867 19.89134376 -73.7265625 18.7109375 C-69.87452543 17.70653815 -66.84376583 16.84376583 -64 14 C-63.01 14 -62.02 14 -61 14 C-61 13.34 -61 12.68 -61 12 C-60.34 12 -59.68 12 -59 12 C-59 12.66 -59 13.32 -59 14 C-57.68 14 -56.36 14 -55 14 C-54.67 13.34 -54.34 12.68 -54 12 C-51.9609375 11.4375 -51.9609375 11.4375 -49.375 11 C-45.1386836 10.22202511 -41.08071801 9.3891806 -37 8 C-36.67 7.34 -36.34 6.68 -36 6 C-34.906875 6.020625 -33.81375 6.04125 -32.6875 6.0625 C-29.05615809 6.18544452 -29.05615809 6.18544452 -26 5 C-25.01 5.495 -25.01 5.495 -24 6 C-23.67 5.34 -23.34 4.68 -23 4 C-20.43745494 3.51616282 -17.96089411 3.15617565 -15.375 2.875 C-14.67503906 2.78863281 -13.97507812 2.70226562 -13.25390625 2.61328125 C-8.80697695 2.09351029 -4.47594771 1.91776474 0 2 C0 1.34 0 0.68 0 0 Z " fill="#040303" transform="translate(707,134)"/>
<path d="M0 0 C1.09441406 0.35191406 2.18882812 0.70382812 3.31640625 1.06640625 C16.40988454 5.6635371 27.321217 13.34833879 33.95703125 25.69140625 C37.93313475 34.49244433 38.46153708 43.52214437 35.4375 52.75 C30.49183198 64.6230497 21.08654007 72.89091843 9.5625 78.25 C-13.25216057 87.28697594 -36.40662567 87.37989196 -59.3125 78.8125 C-71.55649275 73.28674744 -81.30934114 64.46044168 -87 52.1875 C-89.64617848 43.7646966 -88.97727863 34.17410983 -85.25390625 26.234375 C-77.03402935 11.58711772 -63.42003685 3.1356115 -47.57421875 -1.4921875 C-32.4470475 -4.47630322 -14.66576157 -4.90171091 0 0 Z " fill="#040404" transform="translate(1020,310)"/>
<path d="M0 0 C5.28573058 4.64433345 10.15506486 9.43766372 13.234375 15.84765625 C13.55792969 16.51023437 13.88148438 17.1728125 14.21484375 17.85546875 C17.76690119 25.82675258 17.15632445 35.97278142 14.109375 44.03515625 C7.63333249 57.47429738 -4.3285674 65.48689208 -17.953125 70.72265625 C-40.68992462 77.24542282 -64.68744041 76.86947279 -85.953125 65.72265625 C-88.78324018 63.89112686 -91.36616007 61.87846036 -93.953125 59.72265625 C-95.2215625 58.85640625 -95.2215625 58.85640625 -96.515625 57.97265625 C-104.52053644 50.58350723 -108.94427441 41.67165799 -109.390625 30.84765625 C-109.03562045 18.71576156 -103.44463305 9.88384308 -94.953125 1.66015625 C-70.00468681 -19.50443549 -25.73987366 -19.84966448 0 0 Z " fill="#030303" transform="translate(756.953125,320.27734375)"/>
<path d="M0 0 C153.45 0 306.9 0 465 0 C465 5.28 465 10.56 465 16 C311.55 16 158.1 16 0 16 C0 10.72 0 5.44 0 0 Z " fill="#C91007" transform="translate(843,422)"/>
<path d="M0 0 C153.45 0 306.9 0 465 0 C465 5.28 465 10.56 465 16 C311.55 16 158.1 16 0 16 C0 10.72 0 5.44 0 0 Z " fill="#C91007" transform="translate(40,422)"/>
<path d="M0 0 C8.25 0 16.5 0 25 0 C32.75 7.75 32.75 7.75 35.375 10.875 C37.96634205 13.8846753 40.67254783 16.71088616 43.5 19.5 C46.9288279 22.88241399 50.12048518 26.38070442 53.25390625 30.03515625 C55.72481389 32.81561832 58.3816694 35.39118218 61.03125 38 C63.54610923 40.55477763 65.86153617 43.25389677 68.19140625 45.9765625 C70.81534897 48.91220468 73.64618465 51.62122333 76.49609375 54.3359375 C78 56 78 56 78 58 C78.66 58 79.32 58 80 58 C80 38.86 80 19.72 80 0 C87.92 0 95.84 0 104 0 C104 28.38 104 56.76 104 86 C79 86 79 86 70.4375 78.5625 C68.25561523 76.04321289 68.25561523 76.04321289 66.68359375 73.84765625 C63.10472135 69.05512084 59.15468739 64.79398156 55 60.5 C53.67880386 59.1010193 52.35979855 57.69996641 51.04296875 56.296875 C50.38474121 55.59755859 49.72651367 54.89824219 49.04833984 54.17773438 C46.90197955 51.89578755 44.75747581 49.61210683 42.61328125 47.328125 C41.89333984 46.56177734 41.17339844 45.79542969 40.43164062 45.00585938 C39.05859488 43.54423004 37.68616004 42.08202649 36.31445312 40.61914062 C35.69119141 39.95591797 35.06792969 39.29269531 34.42578125 38.609375 C33.84135254 37.98740234 33.25692383 37.36542969 32.65478516 36.72460938 C31.15084439 35.15720932 29.60887881 33.64556838 28.04296875 32.140625 C26 30 26 30 26 28 C25.34 28 24.68 28 24 28 C24 46.81 24 65.62 24 85 C16.08 85 8.16 85 0 85 C0 56.95 0 28.9 0 0 Z " fill="#010101" transform="translate(1075,308)"/>
<path d="M0 0 C9.9 0 19.8 0 30 0 C31.18335938 2.37832031 32.36671875 4.75664062 33.5859375 7.20703125 C43.23551759 26.69691684 43.23551759 26.69691684 53.25 46 C57.48574354 53.93416561 61.53604361 61.95827888 65.5625 70 C65.87699097 70.62648438 66.19148193 71.25296875 66.51550293 71.8984375 C67.40978797 73.6811311 68.30066618 75.46553248 69.19140625 77.25 C69.70904541 78.28640625 70.22668457 79.3228125 70.76000977 80.390625 C72 83 72 83 73 86 C64.42 86 55.84 86 47 86 C45.68 83.56625 44.36 81.1325 43 78.625 C42.58234375 77.86010254 42.1646875 77.09520508 41.734375 76.30712891 C39 71.22222222 39 71.22222222 39 69 C23.16 69.33 7.32 69.66 -9 70 C-11.64 75.28 -14.28 80.56 -17 86 C-25.58 86 -34.16 86 -43 86 C-41.51857017 81.55571051 -40.08911578 77.99436882 -37.9453125 73.9140625 C-37.33647217 72.74794434 -36.72763184 71.58182617 -36.1003418 70.38037109 C-35.77834808 69.76828796 -35.45635437 69.15620483 -35.12460327 68.52557373 C-33.41610845 65.27716463 -31.72202416 62.02125655 -30.02734375 58.765625 C-29.68494156 58.10851532 -29.34253937 57.45140564 -28.98976135 56.77438354 C-25.81828466 50.67627207 -22.74158971 44.53268336 -19.6875 38.375 C-15.66288545 30.27060234 -11.54509766 22.22475891 -7.2956543 14.23583984 C-6.91965088 13.5289502 -6.54364746 12.82206055 -6.15625 12.09375 C-5.83462891 11.49240234 -5.51300781 10.89105469 -5.18164062 10.27148438 C-3.41188205 6.8694526 -1.71498488 3.42996975 0 0 Z " fill="#030303" transform="translate(343,308)"/>
<path d="M0 0 C8.6625 -0.04125 17.325 -0.0825 26.25 -0.125 C28.95993164 -0.14320801 31.66986328 -0.16141602 34.46191406 -0.18017578 C36.64648237 -0.18602533 38.83105288 -0.19111979 41.015625 -0.1953125 C42.12019043 -0.20554443 43.22475586 -0.21577637 44.36279297 -0.22631836 C57.83187101 -0.22929167 72.33375029 1.22594177 82.5625 10.875 C87.14414586 15.96148417 89.69264495 20.79172762 89.3359375 27.8984375 C88.15328412 35.29689701 84.46588977 40.47423586 78.76953125 45.20703125 C69.63771222 51.11888589 59.12146655 53.14048587 48.4140625 53.09765625 C46.48747803 53.09390991 46.48747803 53.09390991 44.52197266 53.09008789 C42.90597168 53.08098389 41.2899707 53.07187988 39.625 53.0625 C34.46875 53.041875 29.3125 53.02125 24 53 C24 63.89 24 74.78 24 86 C16.08 86 8.16 86 0 86 C0 57.62 0 29.24 0 0 Z " fill="#020202" transform="translate(155,308)"/>
<path d="M0 0 C7.92 0 15.84 0 24 0 C24.02578125 3.9496875 24.0515625 7.899375 24.078125 11.96875 C24.11657357 15.80801419 24.16172505 19.64714536 24.20751953 23.48632812 C24.23787523 26.14791611 24.25692114 28.8089002 24.27099609 31.47070312 C24.29248215 35.30381643 24.33916563 39.13593602 24.390625 42.96875 C24.39185364 44.15239136 24.39308228 45.33603271 24.39434814 46.55554199 C24.51623186 53.48187345 25.22892172 58.12929263 29 64 C36.8345715 70.47203733 45.23816743 70.69804083 55 70 C60.72438724 68.96401446 66.03191287 67.44906739 70 63 C73.31044477 56.06836087 73.46989829 49.79097969 73.51171875 42.1875 C73.53864555 40.37330566 73.53864555 40.37330566 73.56611633 38.52246094 C73.62004513 34.68167546 73.65406014 30.84101305 73.6875 27 C73.72068834 24.38670169 73.75517939 21.77341959 73.79101562 19.16015625 C73.87819962 12.77342146 73.93842091 6.38723771 74 0 C81.92 0 89.84 0 98 0 C98.09071928 7.6675237 98.16395571 15.33484463 98.20724869 23.00277615 C98.22803754 26.56414829 98.25619285 30.12513114 98.30175781 33.6862793 C98.35392533 37.78958669 98.37301694 41.89249139 98.390625 45.99609375 C98.41127014 47.26206894 98.43191528 48.52804413 98.45318604 49.8323822 C98.45549817 59.0202213 96.93904177 66.57809988 90.60546875 73.59375 C84.96822091 78.53148534 78.09807275 81.76790165 71 84 C69.845 84.37125 68.69 84.7425 67.5 85.125 C50.67426398 89.331434 30.95380245 88.11989646 15.625 79.6640625 C7.44750732 74.48011624 3.05108603 69.1532581 0 60 C-0.08877175 58.05219171 -0.11761308 56.10143718 -0.11352539 54.15161133 C-0.11344986 52.9505928 -0.11337433 51.74957428 -0.11329651 50.51216125 C-0.10813522 49.21521835 -0.10297394 47.91827545 -0.09765625 46.58203125 C-0.09579077 45.24110466 -0.09436748 43.90017739 -0.09336853 42.55924988 C-0.08955356 39.03290927 -0.07973199 35.50660996 -0.06866455 31.98028564 C-0.0584285 28.38074299 -0.05386621 24.78119365 -0.04882812 21.18164062 C-0.0381088 14.12107526 -0.02052025 7.06054467 0 0 Z " fill="#010101" transform="translate(432,308)"/>
<path d="M0 0 C27.39 0 54.78 0 83 0 C83 15 83 15 79.74609375 19.68359375 C78.34666012 20.9758812 76.90898949 22.22789674 75.4375 23.4375 C74.01722095 24.70444609 72.59923803 25.97397101 71.18359375 27.24609375 C70.13051025 28.16527588 70.13051025 28.16527588 69.05615234 29.10302734 C66.34626937 31.60312123 63.99138935 34.33505214 61.60571289 37.14086914 C59.36241425 39.73821126 56.95575399 42.10202845 54.5 44.5 C50.76486866 48.17929788 47.22955383 51.95650973 43.83203125 55.94921875 C40.72824424 59.42360719 37.37225922 62.64580142 34.0390625 65.8984375 C31.95873909 67.83096046 31.95873909 67.83096046 31 70 C48.49 70.33 65.98 70.66 84 71 C84 75.95 84 80.9 84 86 C56.28 86 28.56 86 0 86 C0 72 0 72 4.0625 67.125 C5.70015748 65.74027246 7.34573049 64.36483873 9 63 C10.19694505 61.69377971 11.36579108 60.3610507 12.5 59 C15.75044651 55.20781241 19.25449569 51.72864469 22.80859375 48.22265625 C25.42101068 45.5729856 27.83302621 42.78827197 30.25390625 39.96484375 C32.09615675 37.89179676 34.02401662 35.94564198 36 34 C39.88096374 30.17148171 43.46374517 26.14569449 47 22 C48.98 19.69 50.96 17.38 53 15 C35.51 15 18.02 15 0 15 C0 10.05 0 5.1 0 0 Z " fill="#040404" transform="translate(834,308)"/>
<path d="M0 0 C23.43 0 46.86 0 71 0 C71 4.29 71 8.58 71 13 C55.82 13.33 40.64 13.66 25 14 C24.67 21.26 24.34 28.52 24 36 C37.53 36 51.06 36 65 36 C65 40.29 65 44.58 65 49 C51.47 49 37.94 49 24 49 C24 56.59 24 64.18 24 72 C39.51 72 55.02 72 71 72 C71 76.62 71 81.24 71 86 C47.57 86 24.14 86 0 86 C0 57.62 0 29.24 0 0 Z " fill="#010101" transform="translate(1203,308)"/>
<path d="M0 0 C0.90817663 -0.00532368 1.81635326 -0.01064735 2.7520504 -0.01613235 C7.5733797 -0.04262144 12.39468547 -0.06205821 17.21606445 -0.07666016 C21.10856293 -0.08986954 25.00052098 -0.11751436 28.89282227 -0.15869141 C54.82208662 -0.42644891 79.70889266 1.01220388 105.29296875 5.2734375 C107.59634397 5.64162728 109.8998784 6.00882319 112.20361328 6.37475586 C179.21818946 17.08459806 179.21818946 17.08459806 202.29296875 31.2734375 C203.50609286 33.6755199 203.480516 34.69468739 202.65625 37.23828125 C198.1880829 45.62647599 198.1880829 45.62647599 195.29296875 48.2734375 C191.60546875 48.6484375 191.60546875 48.6484375 188.29296875 48.2734375 C187.29296875 47.2734375 187.29296875 47.2734375 187.1953125 44.98828125 C187.21271484 43.61349609 187.21271484 43.61349609 187.23046875 42.2109375 C187.23949219 41.29183594 187.24851562 40.37273437 187.2578125 39.42578125 C187.27521484 38.36037109 187.27521484 38.36037109 187.29296875 37.2734375 C186.01292969 37.01046875 184.73289062 36.7475 183.4140625 36.4765625 C179.17739872 35.5348981 175.11595959 34.29577017 171.00488281 32.91381836 C137.07528785 21.5111983 100.78592947 16.18450755 65.29296875 12.2734375 C64.25978516 12.15484375 63.22660156 12.03625 62.16210938 11.9140625 C18.52808696 7.10716692 -27.44458486 8.87333331 -70.70703125 16.2734375 C-71.9297876 16.47912354 -73.15254395 16.68480957 -74.41235352 16.89672852 C-84.30364345 18.58437979 -94.11612291 20.5571582 -103.91870117 22.69799805 C-106.27104277 23.21126731 -108.62467209 23.71827777 -110.97851562 24.22460938 C-120.93982514 26.38003502 -130.83550112 28.7390039 -140.70703125 31.2734375 C-136.50887124 22.87711749 -114.18997051 18.03479107 -105.63476562 15.09448242 C-88.41410589 9.39967564 -70.87708044 5.79697445 -52.90185547 3.56152344 C-49.92686106 3.17103474 -46.97619627 2.65782548 -44.01953125 2.1484375 C-39.20364545 1.40682383 -34.40639331 0.99722257 -29.54418945 0.73583984 C-28.76125928 0.6934487 -27.97832911 0.65105755 -27.17167377 0.60738182 C-18.11737972 0.14998757 -9.0643299 0.05114095 0 0 Z " fill="#C60D03" transform="translate(739.70703125,143.7265625)"/>
<path d="M0 0 C5.65754954 4.34440897 9.2486285 10.22635312 10.49609375 17.2734375 C10.87248338 25.2528976 8.34606557 32.62008088 2.98828125 38.5703125 C-8.28408275 48.89111331 -22.81981373 48.5153143 -37.125 47.97998047 C-45.41360704 47.32795485 -52.39717264 43.45011569 -58.32421875 37.68359375 C-63.76686379 31.23353605 -64.73607705 24.51420322 -64.44921875 16.1953125 C-63.31921045 8.42650544 -59.34871267 3.47608076 -53.19921875 -1.1796875 C-37.60142625 -10.94846744 -15.44609226 -9.84340148 0 0 Z " fill="#F4F4F4" transform="translate(737.94921875,330.2421875)"/>
<path d="M0 0 C0.79857422 -0.00322266 1.59714844 -0.00644531 2.41992188 -0.00976562 C12.90706476 0.08425114 24.12520712 3.00020712 31.7265625 10.6015625 C37.9338351 18.44367233 38.13818797 25.59426247 37.4375 35.3125 C35.80339833 42.02584764 30.97877278 46.47548511 25.4375 50.3125 C17.48318853 54.62271804 10.75148203 55.51501537 1.8125 55.5625 C0.86503906 55.583125 -0.08242188 55.60375 -1.05859375 55.625 C-11.64504035 55.68292857 -21.55150441 53.13648684 -29.3203125 45.609375 C-34.36724626 40.00167082 -35.85194464 35.5063246 -35.875 27.875 C-35.89175781 26.59753906 -35.90851562 25.32007813 -35.92578125 24.00390625 C-35.3093987 17.74066416 -32.17751255 12.56014837 -27.5625 8.3125 C-19.06447169 2.45977233 -10.25549757 -0.20793791 0 0 Z " fill="#F5F5F5" transform="translate(993.5625,322.6875)"/>
<path d="M0 0 C29.7 0 59.4 0 90 0 C90 4.62 90 9.24 90 14 C79.11 14 68.22 14 57 14 C57 37.76 57 61.52 57 86 C49.08 86 41.16 86 33 86 C33 62.24 33 38.48 33 14 C22.11 14 11.22 14 0 14 C0 9.38 0 4.76 0 0 Z " fill="#020202" transform="translate(547,308)"/>
<path d="M0 0 C7.92 0 15.84 0 24 0 C24 24.09 24 48.18 24 73 C37.53 73 51.06 73 65 73 C65 77.29 65 81.58 65 86 C43.55 86 22.1 86 0 86 C0 57.62 0 29.24 0 0 Z " fill="#020202" transform="translate(75,308)"/>
<path d="M0 0 C8.40586115 -0.02317503 16.81170894 -0.04094143 25.21759415 -0.05181217 C29.12082295 -0.05702969 33.02402988 -0.06410684 36.92724609 -0.07543945 C40.69438644 -0.08630847 44.46150576 -0.09228537 48.22866058 -0.09487724 C49.66555869 -0.09672424 51.10245564 -0.10033095 52.53934479 -0.10573006 C54.55258562 -0.11299363 56.56584763 -0.11340851 58.57910156 -0.11352539 C59.72493713 -0.115746 60.87077271 -0.11796661 62.05133057 -0.12025452 C64.57504407 -0.01733082 66.59378446 0.30453561 69 1 C70.64970551 1.13229012 72.303065 1.22273007 73.95703125 1.28125 C75.37918945 1.33732422 75.37918945 1.33732422 76.83007812 1.39453125 C77.81427734 1.42933594 78.79847656 1.46414062 79.8125 1.5 C87.42619396 1.77245823 94.82739212 2.1297366 102.25 4 C106.56419281 5.00124611 110.81066767 5.39103109 115.2265625 5.65625 C118 6 118 6 121.31640625 6.9609375 C125.32455866 8.09155101 129.18655633 8.65848922 133.3125 9.125 C134.02728516 9.21136719 134.74207031 9.29773438 135.47851562 9.38671875 C139.22904432 9.84255105 139.22904432 9.84255105 143 10 C143 10.66 143 11.32 143 12 C143.721875 11.80535156 144.44375 11.61070312 145.1875 11.41015625 C148.34436309 10.94978038 150.01668362 11.38867783 153 12.4375 C156.51984115 13.66394465 159.27638221 14.10497762 163 14 C164.67099977 14.31088368 166.33871537 14.64080332 168 15 C168.66 15 169.32 15 170 15 C170 15.66 170 16.32 170 17 C173.96 17.33 177.92 17.66 182 18 C182 18.66 182 19.32 182 20 C182.98226562 20.16435547 182.98226562 20.16435547 183.984375 20.33203125 C191.08277187 21.56522732 198.0313583 23.17574825 205 25 C202.57961166 27.42038834 200.72537112 27.67067876 197.38183594 28.00878906 C192.79065947 27.99184745 188.5158607 26.61106133 184.125 25.375 C166.75148813 20.76479335 149.13323693 17.36575796 131.31542969 14.98754883 C126.98223582 14.39203779 123.14901625 13.43495769 119 12 C112.14839949 10.04523303 105.64011438 9.71838944 98.54516602 9.75708008 C97.43515732 9.75518173 96.32514862 9.75328339 95.1815033 9.75132751 C91.53889747 9.74764408 87.89649412 9.75828561 84.25390625 9.76953125 C81.7156527 9.77072407 79.17739871 9.771176 76.6391449 9.7709198 C71.33435063 9.77248022 66.02962581 9.78049408 60.72485352 9.79418945 C54.5904568 9.80996802 48.45612284 9.81518542 42.32170731 9.8144539 C36.41048271 9.81384422 30.49927618 9.81904952 24.58805656 9.82724571 C22.07494162 9.8304344 19.56182482 9.83240025 17.04870796 9.83313942 C13.54879698 9.83529742 10.04896614 9.84402818 6.54907227 9.85473633 C4.98209091 9.85405655 4.98209091 9.85405655 3.38345337 9.85336304 C2.43449692 9.85762802 1.48554047 9.86189301 0.50782776 9.86628723 C-0.31931449 9.86796308 -1.14645674 9.86963892 -1.9986639 9.87136555 C-4.07295338 9.87442569 -4.07295338 9.87442569 -6 11 C-9.41167348 11.2646988 -12.81685496 11.44415224 -16.234375 11.60546875 C-20.24751603 11.73687954 -20.24751603 11.73687954 -24 13 C-26.29809536 13.30869938 -28.59720129 13.50883648 -30.90625 13.71875 C-33.05443933 13.892155 -33.05443933 13.892155 -35 15 C-36.55898491 15.17955402 -38.12260877 15.32007325 -39.6875 15.4375 C-44.04391465 15.82781461 -47.83043183 16.72360158 -52 18 C-52.99 18 -53.98 18 -55 18 C-55 17.01 -55 16.02 -55 15 C-57.97 15.66 -60.94 16.32 -64 17 C-64 16.01 -64 15.02 -64 14 C-63.01 14 -62.02 14 -61 14 C-61 13.34 -61 12.68 -61 12 C-60.34 12 -59.68 12 -59 12 C-59 12.66 -59 13.32 -59 14 C-57.68 14 -56.36 14 -55 14 C-54.67 13.34 -54.34 12.68 -54 12 C-51.9609375 11.4375 -51.9609375 11.4375 -49.375 11 C-45.1386836 10.22202511 -41.08071801 9.3891806 -37 8 C-36.67 7.34 -36.34 6.68 -36 6 C-34.906875 6.020625 -33.81375 6.04125 -32.6875 6.0625 C-29.05615809 6.18544452 -29.05615809 6.18544452 -26 5 C-25.34 5.33 -24.68 5.66 -24 6 C-23.67 5.34 -23.34 4.68 -23 4 C-20.43745494 3.51616282 -17.96089411 3.15617565 -15.375 2.875 C-14.67503906 2.78863281 -13.97507812 2.70226562 -13.25390625 2.61328125 C-8.80697695 2.09351029 -4.47594771 1.91776474 0 2 C0 1.34 0 0.68 0 0 Z " fill="#0D0B0C" transform="translate(707,134)"/>
<path d="M0 0 C4.78244164 4.05223663 9.53627845 8.30220099 13.625 13.0625 C13.625 13.7225 13.625 14.3825 13.625 15.0625 C14.945 15.7225 16.265 16.3825 17.625 17.0625 C16.635 18.0525 16.635 18.0525 15.625 19.0625 C14.63113281 18.31871094 13.63726563 17.57492187 12.61328125 16.80859375 C8.85513464 14.13066686 4.99342871 12.06077048 0.8125 10.125 C0.07894287 9.78509033 -0.65461426 9.44518066 -1.41040039 9.0949707 C-35.65785049 -6.3914333 -69.86150229 -5.58087926 -105.375 5.0625 C-107.03402344 5.55169922 -107.03402344 5.55169922 -108.7265625 6.05078125 C-110.9463013 6.7104501 -113.16258373 7.37876331 -115.375 8.0625 C-115.375 7.0725 -115.375 6.0825 -115.375 5.0625 C-115.705 4.0725 -116.035 3.0825 -116.375 2.0625 C-80.61597458 -22.06277952 -35.81833552 -27.74815499 0 0 Z " fill="#9A9B9D" transform="translate(1105.375,256.9375)"/>
<path d="M0 0 C4.50065073 -0.10830443 8.99867357 -0.18748158 13.5 -0.25 C15.40265625 -0.30027344 15.40265625 -0.30027344 17.34375 -0.3515625 C25.74410999 -0.43906625 31.40963913 0.12688301 38 5.6875 C39.62120289 9.43653168 39.6237877 12.9919848 39 17 C36.78472107 21.24595129 34.02154173 22.79238208 29.57226562 24.39355469 C24.14159684 25.67390598 18.54485922 25.30167609 13 25.1875 C11.74832031 25.17396484 10.49664062 25.16042969 9.20703125 25.14648438 C6.13783363 25.11134089 3.06885942 25.05754111 0 25 C0 16.75 0 8.5 0 0 Z " fill="#F3F3F3" transform="translate(179,322)"/>
<path d="M0 0 C20.25842697 0 20.25842697 0 26 4 C29.42244472 7.52379274 31.25136152 11.20335495 31.5625 16.125 C30.76499333 21.61893481 28.60273567 24.44058151 24.6875 28.25 C16.76508906 33.40877922 9.49393514 32 0 32 C0 21.44 0 10.88 0 0 Z " fill="#0D0D0D" transform="translate(706,421)"/>
<path d="M0 0 C19.8108877 -0.70288301 39.94730276 3.32756363 57 14 C57.495 14.99 57.495 14.99 58 16 C55.9375 17.625 55.9375 17.625 53 19 C50.45684273 18.50134171 48.40562807 17.88067309 46 17 C44.29382425 16.4926864 42.58535782 15.99303034 40.875 15.5 C38.27489219 14.72349721 35.81768074 13.92368031 33.3125 12.875 C12.66034105 5.06066959 -17.11921614 11.35742331 -37 19 C-38.10472656 19.55429687 -39.20945313 20.10859375 -40.34765625 20.6796875 C-43.43690157 22.21748561 -45.59371368 22.24330617 -49 22 C-46.71071417 17.12356587 -43.4590217 15.16093905 -38.8125 12.8125 C-38.17763672 12.47025391 -37.54277344 12.12800781 -36.88867188 11.77539062 C-33.49259311 10.00695729 -30.31267433 8.74315281 -26.57421875 7.88671875 C-25.39472656 7.59410156 -24.21523438 7.30148438 -23 7 C-22.67 6.34 -22.34 5.68 -22 5 C-14.77901054 2.86407639 -7.52502491 1.54849851 0 2 C0 1.34 0 0.68 0 0 Z " fill="#8C8C8E" transform="translate(288,240)"/>
<path d="M0 0 C0.66 0 1.32 0 2 0 C2.30703857 0.64437012 2.61407715 1.28874023 2.93041992 1.95263672 C4.34847441 4.92722238 5.76797951 7.90111367 7.1875 10.875 C7.67025391 11.88820313 8.15300781 12.90140625 8.65039062 13.9453125 C11.39255155 19.68728706 14.1862908 25.39174698 17.1105957 31.04345703 C18 33 18 33 18 35 C6.45 35 -5.1 35 -17 35 C-11.47395436 23.25715302 -5.86126881 11.57880079 0 0 Z " fill="#F3F3F3" transform="translate(357,329)"/>
<path d="M0 0 C18.47023472 5.7295422 33.51484061 16.50360584 45 32 C42.5625 31.625 42.5625 31.625 40 31 C39.67 30.34 39.34 29.68 39 29 C37.29379881 28.26211003 37.29379881 28.26211003 35.19140625 27.68359375 C30.38604689 26.17165666 25.78405458 24.31071066 21.13256836 22.38232422 C4.96775678 15.70493663 -9.2760054 10.87802602 -27 12 C-27.76296387 12.04398926 -28.52592773 12.08797852 -29.31201172 12.13330078 C-50.11030463 13.44772246 -70.09097397 17.60759041 -87.8125 29 C-89.3903125 29.99 -89.3903125 29.99 -91 31 C-91.66 30.67 -92.32 30.34 -93 30 C-92.67 29.34 -92.34 28.68 -92 28 C-93.65 28.66 -95.3 29.32 -97 30 C-93.48926688 25.35677232 -89.68630185 22.04796858 -84.98828125 18.61328125 C-82.77007556 16.97644317 -82.77007556 16.97644317 -81 14 C-80.34 14 -79.68 14 -79 14 C-79 13.34 -79 12.68 -79 12 C-77.46875 10.7109375 -77.46875 10.7109375 -75.5 9.375 C-74.8503125 8.92898437 -74.200625 8.48296875 -73.53125 8.0234375 C-73.0259375 7.68570313 -72.520625 7.34796875 -72 7 C-71.01 7.99 -70.02 8.98 -69 10 C-70.97566188 11.97566188 -72.52337094 12.89579072 -75 14.125 C-75.70125 14.47820312 -76.4025 14.83140625 -77.125 15.1953125 C-79 16 -79 16 -81 16 C-81.33 17.32 -81.66 18.64 -82 20 C-78.18635727 19.59856392 -74.95107349 18.64910072 -71.4375 17.1875 C-55.80574739 10.77148214 -41.01505614 8.84539796 -24.25 8.75 C-23.11353027 8.7406543 -21.97706055 8.73130859 -20.80615234 8.72167969 C-11.43424569 8.75716383 -2.75975082 9.71742565 5.94921875 13.26953125 C10.34980756 14.83697907 15.31273631 16 20 16 C20.66 15.34 21.32 14.68 22 14 C14.19429645 9.84803003 6.4673771 6.55222359 -2 4 C-1.34 2.68 -0.68 1.36 0 0 Z " fill="#CBCBCC" transform="translate(323,241)"/>
<path d="M0 0 C7 0 7 0 9.44140625 2.08984375 C10.14136719 3.02957031 10.84132813 3.96929687 11.5625 4.9375 C12.3153125 5.93265625 13.068125 6.9278125 13.84375 7.953125 C16.65129449 11.92030743 19.38174275 15.90477712 22 20 C22.33 13.4 22.66 6.8 23 0 C25.31 0 27.62 0 30 0 C30 10.56 30 21.12 30 32 C23 32 23 32 21.15136719 30.59472656 C20.70438477 29.94987305 20.25740234 29.30501953 19.796875 28.640625 C19.2915625 27.93679688 18.78625 27.23296875 18.265625 26.5078125 C17.76546875 25.76273437 17.2653125 25.01765625 16.75 24.25 C16.234375 23.52039063 15.71875 22.79078125 15.1875 22.0390625 C14.22478325 20.6743867 13.27146779 19.3029917 12.33105469 17.92285156 C10.93897723 15.91184605 9.46749045 13.95665393 8 12 C7.67 18.6 7.34 25.2 7 32 C4.69 32 2.38 32 0 32 C0 21.44 0 10.88 0 0 Z " fill="#0D0D0D" transform="translate(669,421)"/>
<path d="M0 0 C2.97 0 5.94 0 9 0 C10.71337833 4.23407987 12.42225627 8.46993692 14.12695312 12.70751953 C14.70774363 14.14942616 15.28977 15.59083563 15.87304688 17.03173828 C16.71027311 19.10059835 17.54306709 21.17119419 18.375 23.2421875 C18.63748535 23.88807831 18.8999707 24.53396912 19.17041016 25.19943237 C21 29.77225659 21 29.77225659 21 32 C18.69 32 16.38 32 14 32 C13.34 30.02 12.68 28.04 12 26 C7.05 26 2.1 26 -3 26 C-3.66 27.98 -4.32 29.96 -5 32 C-7.31 32 -9.62 32 -12 32 C-9.94400621 24.55838512 -7.29150906 17.49231351 -4.3125 10.375 C-3.68891602 8.86873047 -3.68891602 8.86873047 -3.05273438 7.33203125 C-2.03945904 4.88619424 -1.02183204 2.4422715 0 0 Z " fill="#0F0F0F" transform="translate(811,421)"/>
<path d="M0 0 C2.97 0 5.94 0 9 0 C10.71337833 4.23407987 12.42225627 8.46993692 14.12695312 12.70751953 C14.70774363 14.14942616 15.28977 15.59083563 15.87304688 17.03173828 C16.71027311 19.10059835 17.54306709 21.17119419 18.375 23.2421875 C18.63748535 23.88807831 18.8999707 24.53396912 19.17041016 25.19943237 C21 29.77225659 21 29.77225659 21 32 C18.69 32 16.38 32 14 32 C13.34 30.02 12.68 28.04 12 26 C7.05 26 2.1 26 -3 26 C-3.66 27.98 -4.32 29.96 -5 32 C-7.31 32 -9.62 32 -12 32 C-9.94400621 24.55838512 -7.29150906 17.49231351 -4.3125 10.375 C-3.68891602 8.86873047 -3.68891602 8.86873047 -3.05273438 7.33203125 C-2.03945904 4.88619424 -1.02183204 2.4422715 0 0 Z " fill="#101010" transform="translate(752,421)"/>
<path d="M0 0 C2.05078125 0.03255208 4.1015625 0.06510417 6.15234375 0.09765625 C7.86811684 4.16995545 9.57691146 8.24509013 11.27929688 12.32299805 C11.85941654 13.70986691 12.44143628 15.09594257 13.02539062 16.48120117 C13.86438681 18.47239025 14.69651037 20.46633109 15.52734375 22.4609375 C16.28144531 24.25978394 16.28144531 24.25978394 17.05078125 26.0949707 C18.15234375 29.09765625 18.15234375 29.09765625 18.15234375 32.09765625 C15.84234375 32.09765625 13.53234375 32.09765625 11.15234375 32.09765625 C10.49234375 30.44765625 9.83234375 28.79765625 9.15234375 27.09765625 C4.20234375 26.76765625 -0.74765625 26.43765625 -5.84765625 26.09765625 C-6.17765625 27.74765625 -6.50765625 29.39765625 -6.84765625 31.09765625 C-9.15765625 31.09765625 -11.46765625 31.09765625 -13.84765625 31.09765625 C-13.26884312 26.84974985 -12.25929521 23.24425348 -10.59765625 19.296875 C-10.15421875 18.23791016 -9.71078125 17.17894531 -9.25390625 16.08789062 C-8.78984375 14.99798828 -8.32578125 13.90808594 -7.84765625 12.78515625 C-7.38359375 11.67591797 -6.91953125 10.56667969 -6.44140625 9.42382812 C-2.52732729 0.13357967 -2.52732729 0.13357967 0 0 Z " fill="#0D0D0D" transform="translate(645.84765625,420.90234375)"/>
<path d="M0 0 C4.021875 -0.0928125 4.021875 -0.0928125 8.125 -0.1875 C8.95789551 -0.21481201 9.79079102 -0.24212402 10.64892578 -0.27026367 C15.50273718 -0.3241177 18.81697656 0.27277043 23 3 C25.44521115 6.66781672 25.72237759 9.73453233 25 14 C23.12984906 16.43119623 21.71861655 17.64069173 19 19 C16.95944995 19.07065617 14.91665743 19.08421976 12.875 19.0625 C9.966875 19.0315625 9.966875 19.0315625 7 19 C7 23.29 7 27.58 7 32 C4.69 32 2.38 32 0 32 C0 21.44 0 10.88 0 0 Z " fill="#0A0A0A" transform="translate(520,421)"/>
<path d="M0 0 C3.22265625 -0.40625 3.22265625 -0.40625 7 0 C8.92409498 2.24838066 10.105419 3.94219177 11.4375 6.5 C11.78748047 7.12003906 12.13746094 7.74007813 12.49804688 8.37890625 C13.35569369 9.9062225 14.18111194 11.45155713 15 13 C17.31 8.71 19.62 4.42 22 0 C24.64 0 27.28 0 30 0 C28.69689726 3.75265106 26.85337774 6.85630684 24.67358398 10.16577148 C19.96653505 17.38857677 17.58796361 23.14945842 18 32 C15.69 32 13.38 32 11 32 C11.04382813 31.34257812 11.08765625 30.68515625 11.1328125 30.0078125 C11.10479728 19.6701965 6.17878222 12.22274446 0.90209961 3.68896484 C0 2 0 2 0 0 Z " fill="#0E0E0E" transform="translate(599,421)"/>
<path d="M0 0 C6.93 0.495 6.93 0.495 14 1 C14 1.66 14 2.32 14 3 C14.721875 2.80535156 15.44375 2.61070312 16.1875 2.41015625 C19.34436309 1.94978038 21.01668362 2.38867783 24 3.4375 C27.51984115 4.66394465 30.27638221 5.10497762 34 5 C35.67099977 5.31088368 37.33871537 5.64080332 39 6 C39.66 6 40.32 6 41 6 C41 6.66 41 7.32 41 8 C44.96 8.33 48.92 8.66 53 9 C53 9.66 53 10.32 53 11 C53.65484375 11.10957031 54.3096875 11.21914062 54.984375 11.33203125 C62.08277187 12.56522732 69.0313583 14.17574825 76 16 C73.57961166 18.42038834 71.72537112 18.67067876 68.38183594 19.00878906 C63.79065947 18.99184745 59.5158607 17.61106133 55.125 16.375 C35.67145675 11.21283963 15.92439938 7.76602836 -4 5 C-3.01 4.34 -2.02 3.68 -1 3 C-0.67 2.01 -0.34 1.02 0 0 Z " fill="#380100" transform="translate(836,143)"/>
<path d="M0 0 C9.97814208 -0.6010929 9.97814208 -0.6010929 14.1875 1.875 C16.73062829 6.25970395 16.9292117 10.04420426 16 15 C14.11484777 17.57637471 12.80665143 18.59667428 10 20 C6.7 20 3.4 20 0 20 C0 13.4 0 6.8 0 0 Z " fill="#F4F4F4" transform="translate(713,427)"/>
<path d="M0 0 C2.31 0 4.62 0 7 0 C7 8.91 7 17.82 7 27 C10.96 27 14.92 27 19 27 C19 28.65 19 30.3 19 32 C12.73 32 6.46 32 0 32 C0 21.44 0 10.88 0 0 Z " fill="#111111" transform="translate(564,421)"/>
<path d="M0 0 C1.03125 0.00322266 2.0625 0.00644531 3.125 0.00976562 C4.20523438 0.01814453 5.28546875 0.02652344 6.3984375 0.03515625 C8.03039062 0.04192383 8.03039062 0.04192383 9.6953125 0.04882812 C12.38807539 0.06063849 15.08072938 0.07710847 17.7734375 0.09765625 C17.7734375 0.42765625 17.7734375 0.75765625 17.7734375 1.09765625 C16.79286377 1.17282471 15.81229004 1.24799316 14.80200195 1.32543945 C-12.30696462 3.37969923 -12.30696462 3.37969923 -39.2265625 7.09765625 C-40.44931885 7.30334229 -41.6720752 7.50902832 -42.93188477 7.72094727 C-52.8231747 9.40859854 -62.63565416 11.38137695 -72.43823242 13.5222168 C-74.79057402 14.03548606 -77.14420334 14.54249652 -79.49804688 15.04882812 C-89.45935639 17.20425377 -99.35503237 19.56322265 -109.2265625 22.09765625 C-107.93726604 19.51906333 -106.85116347 19.2822068 -104.24609375 18.109375 C-103.00375977 17.54754517 -103.00375977 17.54754517 -101.73632812 16.97436523 C-100.84623047 16.58192627 -99.95613281 16.1894873 -99.0390625 15.78515625 C-98.13736328 15.38433838 -97.23566406 14.98352051 -96.30664062 14.57055664 C-77.02029749 6.09765625 -77.02029749 6.09765625 -70.2265625 6.09765625 C-70.2265625 6.75765625 -70.2265625 7.41765625 -70.2265625 8.09765625 C-71.5053125 8.40703125 -72.7840625 8.71640625 -74.1015625 9.03515625 C-76.32757925 9.57370869 -78.17396249 10.07135625 -80.2265625 11.09765625 C-72.96347059 11.43630348 -66.26924376 10.15091403 -59.1640625 8.72265625 C-58.01873047 8.5009375 -56.87339844 8.27921875 -55.69335938 8.05078125 C-48.9643381 6.74042405 -48.9643381 6.74042405 -42.34765625 4.96875 C-38.96422082 4.02443698 -35.85443896 3.72526617 -32.3515625 3.53515625 C-28.47091319 3.65381745 -28.47091319 3.65381745 -25.2265625 2.09765625 C-22.24378517 1.88607007 -19.27565048 1.7212392 -16.2890625 1.59765625 C-14.63393851 1.52885202 -12.97897179 1.45611918 -11.32421875 1.37890625 C-10.21832397 1.3334668 -10.21832397 1.3334668 -9.09008789 1.28710938 C-5.84316582 0.95701485 -3.4550345 -0.01898371 0 0 Z " fill="#AB130C" transform="translate(708.2265625,152.90234375)"/>
<path d="M0 0 C2.31 0 4.62 0 7 0 C7 8.91 7 17.82 7 27 C10.63 27 14.26 27 18 27 C18 28.32 18 29.64 18 31 C12.06 31 6.12 31 0 31 C0 20.77 0 10.54 0 0 Z " fill="#020202" transform="translate(778,421)"/>
<path d="M0 0 C1.41259598 -0.00856522 1.41259598 -0.00856522 2.85372925 -0.01730347 C3.89052826 -0.01842133 4.92732727 -0.01953918 5.99554443 -0.02069092 C7.08525543 -0.02565582 8.17496643 -0.03062073 9.29769897 -0.03573608 C12.92061996 -0.05039631 16.54349703 -0.05716931 20.16644287 -0.06268311 C22.68595379 -0.06843536 25.20546469 -0.07419308 27.72497559 -0.07995605 C32.3435799 -0.08913324 36.96217105 -0.09542636 41.58078218 -0.09845281 C48.34877132 -0.10291283 55.11655641 -0.1203582 61.88448358 -0.1494534 C67.76521753 -0.17384386 73.64588468 -0.18140566 79.52666473 -0.18312836 C82.01591852 -0.18613994 84.50517176 -0.19411744 86.9943924 -0.20731354 C112.00420821 -0.33033417 112.00420821 -0.33033417 123.52581787 3.14044189 C123.52581787 3.47044189 123.52581787 3.80044189 123.52581787 4.14044189 C121.19226517 3.99763333 118.85902199 3.85125753 116.52581787 3.70294189 C113.668396 3.52435303 113.668396 3.52435303 110.81097412 3.34576416 C108.84327611 3.16896565 106.88326616 2.91008242 104.92678833 2.63569641 C100.54559873 2.08657167 96.23608922 1.9993883 91.82513428 2.01104736 C90.99456512 2.00929504 90.16399597 2.00754272 89.30825806 2.0057373 C86.5812771 2.0013624 83.85436192 2.00424409 81.12738037 2.00762939 C79.20895373 2.00695447 77.29052718 2.00598287 75.37210083 2.00473022 C71.35253077 2.0032586 67.33298299 2.00538824 63.31341553 2.0100708 C58.2125957 2.01572917 53.11182895 2.01251053 48.01101112 2.00649834 C44.04537574 2.00284514 40.07975246 2.00405355 36.11411667 2.00662613 C34.23663705 2.00728433 32.35915626 2.0065066 30.48167801 2.00414658 C13.64110139 1.98763921 -2.98209723 2.48739937 -19.66168213 5.01544189 C-20.86059082 5.19107666 -22.05949951 5.36671143 -23.29473877 5.54766846 C-30.81610122 6.67146229 -38.26837249 7.96202448 -45.68902588 9.62481689 C-48.35742038 10.11882541 -50.76832731 10.24010506 -53.47418213 10.14044189 C-52.47418213 8.14044189 -52.47418213 8.14044189 -49.53668213 7.07794189 C-45.60347343 6.03343834 -41.6601566 5.69038485 -37.61090088 5.38653564 C-35.42458046 5.25811552 -35.42458046 5.25811552 -33.47418213 4.14044189 C-31.17608677 3.83174252 -28.87698084 3.63160541 -26.56793213 3.42169189 C-24.4197428 3.24828689 -24.4197428 3.24828689 -22.47418213 2.14044189 C-19.06250865 1.87574309 -15.65732716 1.69628965 -12.23980713 1.53497314 C-7.91450817 1.30607959 -4.28334804 0.01552616 0 0 Z " fill="#3B0201" transform="translate(707.4741821289063,142.85955810546875)"/>
<path d="M0 0 C18.47023472 5.7295422 33.51484061 16.50360584 45 32 C42.5625 31.625 42.5625 31.625 40 31 C39.505 30.01 39.505 30.01 39 29 C36.43500152 27.59452138 33.87780259 26.27688999 31.25 25 C30.53328125 24.64421875 29.8165625 24.2884375 29.078125 23.921875 C25.43637436 22.12777726 21.80127198 20.43670122 18 19 C19.32 17.35 20.64 15.7 22 14 C14.19429645 9.84803003 6.4673771 6.55222359 -2 4 C-1.34 2.68 -0.68 1.36 0 0 Z " fill="#C6C6C7" transform="translate(323,241)"/>
<path d="M0 0 C2.31 0 4.62 0 7 0 C7 10.56 7 21.12 7 32 C4.69 32 2.38 32 0 32 C0 21.44 0 10.88 0 0 Z " fill="#0E0E0E" transform="translate(587,421)"/>
<path d="M0 0 C1.98 0 3.96 0 6 0 C6 10.56 6 21.12 6 32 C4.02 32 2.04 32 0 32 C0 21.44 0 10.88 0 0 Z " fill="#060606" transform="translate(551,421)"/>
<path d="M0 0 C-0.33 0.66 -0.66 1.32 -1 2 C1.97 2 4.94 2 8 2 C8 2.66 8 3.32 8 4 C6.84242188 4.32613281 5.68484375 4.65226563 4.4921875 4.98828125 C2.95303666 5.42937936 1.41397905 5.87080289 -0.125 6.3125 C-0.88554687 6.52583984 -1.64609375 6.73917969 -2.4296875 6.95898438 C-6.90689748 8.25197174 -10.82923604 9.89008411 -15 12 C-18.375 12.1875 -18.375 12.1875 -21 12 C-18.61731704 6.85557088 -15.34391834 5.08847847 -10.5 2.625 C-9.82324219 2.25761719 -9.14648438 1.89023438 -8.44921875 1.51171875 C-3.39309116 -1.13103039 -3.39309116 -1.13103039 0 0 Z " fill="#A5A5A6" transform="translate(260,250)"/>
<path d="M0 0 C9.90649452 -0.36664094 19.47066664 0.75370057 29.25 2.125 C30.04449554 2.23371429 30.83899109 2.34242859 31.65756226 2.45443726 C48.21634865 4.72589869 64.61513183 7.71349533 81 11 C81 11.33 81 11.66 81 12 C79.35425434 12.02688151 77.70838587 12.04634123 76.0625 12.0625 C74.68771484 12.07990234 74.68771484 12.07990234 73.28515625 12.09765625 C71 12 71 12 70 11 C68.52603261 10.79231771 67.0450874 10.63283983 65.5625 10.5 C61.21917808 10.10958904 61.21917808 10.10958904 59 9 C57.50420396 8.79907217 56.00303276 8.63663934 54.5 8.5 C50.22222222 8.11111111 50.22222222 8.11111111 48 7 C45.58218542 6.62258504 43.17832232 6.29186294 40.75 6 C39.68821533 5.86863647 39.68821533 5.86863647 38.60498047 5.73461914 C32.64368219 5.02184078 26.69024903 4.5806631 20.6953125 4.24609375 C18 4 18 4 16 3 C13.29127482 2.60772162 10.59248307 2.25430502 7.875 1.9375 C7.12089844 1.84662109 6.36679687 1.75574219 5.58984375 1.66210938 C3.72695812 1.43809148 1.86352748 1.21861427 0 1 C0 0.67 0 0.34 0 0 Z " fill="#300000" transform="translate(793,155)"/>
<path d="M0 0 C11.19742559 -0.04661014 22.3948276 -0.08201354 33.59233093 -0.10362434 C38.79335998 -0.11400328 43.99432201 -0.12805311 49.1953125 -0.15087891 C54.22686408 -0.17281957 59.25835173 -0.18461275 64.28994751 -0.18975449 C66.19700118 -0.19341255 68.10405188 -0.20055412 70.01107788 -0.21146011 C81.52230651 -0.27459407 92.61159211 0.22843919 104 2 C104 2.33 104 2.66 104 3 C101.04160645 3.02689449 98.08345573 3.04678741 95.125 3.0625 C93.86236328 3.07506836 93.86236328 3.07506836 92.57421875 3.08789062 C91.76855469 3.09111328 90.96289062 3.09433594 90.1328125 3.09765625 C89.01737061 3.10551147 89.01737061 3.10551147 87.87939453 3.11352539 C86 3 86 3 84 2 C81.34625148 1.87756962 78.71701637 1.81431199 76.06201172 1.79467773 C75.24241974 1.78477814 74.42282776 1.77487854 73.57839966 1.76467896 C70.86219192 1.73302467 68.14596668 1.70829103 65.4296875 1.68359375 C63.5492405 1.66302761 61.66879817 1.64203123 59.7883606 1.62062073 C54.83343269 1.5653649 49.87846283 1.51597112 44.92346191 1.46777344 C39.86950943 1.41758402 34.81561806 1.36188461 29.76171875 1.30664062 C19.84119801 1.19901612 9.92062426 1.09758069 0 1 C0 0.67 0 0.34 0 0 Z " fill="#AA150C" transform="translate(720,144)"/>
<path d="M0 0 C2.97 0 5.94 0 9 0 C9 0.66 9 1.32 9 2 C9.65484375 2.10957031 10.3096875 2.21914062 10.984375 2.33203125 C18.08277187 3.56522732 25.0313583 5.17574825 32 7 C29.10924477 9.89075523 25.92797891 9.96578416 22 10 C19.22555376 9.53445733 16.70201811 8.8202555 14 8 C14 7.01 14 6.02 14 5 C11.69 5 9.38 5 7 5 C6.67 4.01 6.34 3.02 6 2 C4.02 2.33 2.04 2.66 0 3 C0 2.01 0 1.02 0 0 Z " fill="#250E0F" transform="translate(880,152)"/>
<path d="M0 0 C1.258125 -0.04125 2.51625 -0.0825 3.8125 -0.125 C4.52019531 -0.14820313 5.22789062 -0.17140625 5.95703125 -0.1953125 C8 0 8 0 11 2 C11.25 5.0625 11.25 5.0625 11 8 C10 9 10 9 7.71484375 9.09765625 C6.34005859 9.08025391 6.34005859 9.08025391 4.9375 9.0625 C4.01839844 9.05347656 3.09929688 9.04445313 2.15234375 9.03515625 C1.44207031 9.02355469 0.73179687 9.01195312 0 9 C0 6.03 0 3.06 0 0 Z " fill="#EDEDED" transform="translate(527,426)"/>
<path d="M0 0 C6.93 0.495 6.93 0.495 14 1 C14 1.66 14 2.32 14 3 C14.71542969 2.80535156 15.43085937 2.61070312 16.16796875 2.41015625 C19.3882199 1.94377505 21.24689158 2.41563053 24.3125 3.4375 C25.19550781 3.72496094 26.07851563 4.01242188 26.98828125 4.30859375 C27.65214844 4.53675781 28.31601562 4.76492187 29 5 C25.25 7 25.25 7 23 7 C23 6.34 23 5.68 23 5 C22.01 5.33 21.02 5.66 20 6 C12.94938918 6.47469459 12.94938918 6.47469459 10 5 C8.50420396 4.79907217 7.00303276 4.63663934 5.5 4.5 C1.22222222 4.11111111 1.22222222 4.11111111 -1 3 C-0.67 2.01 -0.34 1.02 0 0 Z " fill="#1E1E1F" transform="translate(836,143)"/>
<path d="M0 0 C7.40178601 0.47489335 15.04118053 1.3173579 22 4 C22.33 4.99 22.66 5.98 23 7 C23.70511719 7.10183594 24.41023438 7.20367187 25.13671875 7.30859375 C28.41059645 8.09914812 30.88584467 9.40523734 33.8125 11.0625 C34.78832031 11.61035156 35.76414062 12.15820312 36.76953125 12.72265625 C37.50558594 13.14417969 38.24164063 13.56570313 39 14 C36 15 36 15 33.1640625 13.8125 C31.41222656 12.9153125 31.41222656 12.9153125 29.625 12 C20.11796433 7.29398728 10.09864712 4.17652865 0 1 C0 0.67 0 0.34 0 0 Z " fill="#D5D5D6" transform="translate(318,253)"/>
<path d="M0 0 C2.80561393 1.40280696 3.00680507 3.0509005 4.125 5.9375 C4.47820313 6.83339844 4.83140625 7.72929687 5.1953125 8.65234375 C6 11 6 11 6 13 C2.7 13 -0.6 13 -4 13 C-3.27991594 8.39146203 -1.68704061 4.32762591 0 0 Z " fill="#DDDDDD" transform="translate(647,429)"/>
<path d="M0 0 C3.49832218 4.66442957 3.92640115 7.38425216 5 13 C1.7 13 -1.6 13 -5 13 C-3.35 8.71 -1.7 4.42 0 0 Z " fill="#E0E0E0" transform="translate(815,429)"/>
<path d="M0 0 C0.99 0.99 1.98 1.98 3 3 C1.02433812 4.97566188 -0.52337094 5.89579072 -3 7.125 C-3.70125 7.47820312 -4.4025 7.83140625 -5.125 8.1953125 C-7 9 -7 9 -9 9 C-9.6814823 10.89179203 -9.6814823 10.89179203 -10 13 C-9.34 13.66 -8.68 14.32 -8 15 C-13.41538462 18.07692308 -13.41538462 18.07692308 -16.375 17.6875 C-16.91125 17.460625 -17.4475 17.23375 -18 17 C-17.2575 16.278125 -16.515 15.55625 -15.75 14.8125 C-12.98732731 12.09288953 -12.98732731 12.09288953 -10.8125 9.1875 C-10.214375 8.465625 -9.61625 7.74375 -9 7 C-8.34 7 -7.68 7 -7 7 C-7 6.34 -7 5.68 -7 5 C-5.46875 3.7109375 -5.46875 3.7109375 -3.5 2.375 C-2.8503125 1.92898437 -2.200625 1.48296875 -1.53125 1.0234375 C-1.0259375 0.68570313 -0.520625 0.34796875 0 0 Z " fill="#CDCDCD" transform="translate(251,248)"/>
<path d="M0 0 C2.05123248 2.05123248 2.64147118 3.27005063 3.625 5.9375 C3.88539063 6.62714844 4.14578125 7.31679688 4.4140625 8.02734375 C5 10 5 10 5 13 C1.7 13 -1.6 13 -5 13 C-3.35 8.71 -1.7 4.42 0 0 Z " fill="#E2E2E2" transform="translate(756,429)"/>
<path d="M0 0 C1.22589844 0.01353516 1.22589844 0.01353516 2.4765625 0.02734375 C3.10304688 0.03894531 3.72953125 0.05054688 4.375 0.0625 C4.375 0.3925 4.375 0.7225 4.375 1.0625 C3.63451416 1.20349121 2.89402832 1.34448242 2.13110352 1.48974609 C-1.26703407 2.13759151 -4.66476802 2.78753085 -8.0625 3.4375 C-9.22716797 3.65921875 -10.39183594 3.8809375 -11.59179688 4.109375 C-16.67120417 5.08233189 -21.73914383 6.06647308 -26.78125 7.21875 C-29.91285469 7.90617542 -32.44962578 8.26736285 -35.625 8.0625 C-34.625 6.0625 -34.625 6.0625 -31.6875 5 C-27.7542913 3.95549644 -23.81097447 3.61244295 -19.76171875 3.30859375 C-17.57539833 3.18017362 -17.57539833 3.18017362 -15.625 2.0625 C-13.32690464 1.75380062 -11.02779871 1.55366352 -8.71875 1.34375 C-5.5396956 0.91671284 -3.34636945 -0.04780528 0 0 Z " fill="#270000" transform="translate(689.625,144.9375)"/>
<path d="M0 0 C8.70379815 0.39912728 16.80236075 2.67097238 25.125 5.0625 C26.47634593 5.4441271 27.82790733 5.82499204 29.1796875 6.20507812 C32.45531511 7.12927306 35.72857231 8.06106771 39 9 C39 9.33 39 9.66 39 10 C38.01 9.855625 37.02 9.71125 36 9.5625 C32.00590535 8.99074821 28.00467063 8.49180166 24 8 C24 7.34 24 6.68 24 6 C22.865625 6.020625 21.73125 6.04125 20.5625 6.0625 C17 6 17 6 16 5 C14.65252916 4.76924918 13.29622435 4.58846937 11.9375 4.4375 C10.638125 4.293125 9.33875 4.14875 8 4 C8 3.34 8 2.68 8 2 C5.36 1.67 2.72 1.34 0 1 C0 0.67 0 0.34 0 0 Z " fill="#A8150D" transform="translate(873,155)"/>
<path d="M0 0 C0.99 0.33 1.98 0.66 3 1 C0.70308628 3.29691372 -1.59191051 4.56049263 -4.4375 6.125 C-5.40558594 6.66382813 -6.37367188 7.20265625 -7.37109375 7.7578125 C-10 9 -10 9 -13 9 C-12.67 8.34 -12.34 7.68 -12 7 C-13.65 7.66 -15.3 8.32 -17 9 C-14.02839397 4.80479148 -14.02839397 4.80479148 -12 3 C-9.0625 2.8125 -9.0625 2.8125 -6 3 C-3.99218823 2.01577854 -1.99107248 1.01765927 0 0 Z " fill="#E1E1E1" transform="translate(243,262)"/>
<path d="M0 0 C1.32 0.66 2.64 1.32 4 2 C2.53824146 5.88694884 0.69873837 7.00815228 -3 8.75 C-3.886875 9.17796875 -4.77375 9.6059375 -5.6875 10.046875 C-8 11 -8 11 -10 11 C-9.67 10.01 -9.34 9.02 -9 8 C-8.34 8 -7.68 8 -7 8 C-6.773125 7.4225 -6.54625 6.845 -6.3125 6.25 C-4.66961977 3.4336339 -2.60466773 1.91922886 0 0 Z " fill="#C4C4C4" transform="translate(988,260)"/>
<path d="M0 0 C2.97 0.33 5.94 0.66 9 1 C9 1.99 9 2.98 9 4 C10.98 3.67 12.96 3.34 15 3 C15.33 3.66 15.66 4.32 16 5 C18.32156597 5.40729228 20.6568787 5.74438677 23 6 C23 6.66 23 7.32 23 8 C15.1841066 7.38698875 7.04347476 5.52173738 0 2 C0 1.34 0 0.68 0 0 Z " fill="#220000" transform="translate(871,151)"/>
<path d="M0 0 C0.80824219 0.10183594 1.61648438 0.20367187 2.44921875 0.30859375 C3.06410156 0.39238281 3.67898438 0.47617188 4.3125 0.5625 C3.9825 1.8825 3.6525 3.2025 3.3125 4.5625 C4.6325 4.8925 5.9525 5.2225 7.3125 5.5625 C4.1693669 7.13406655 1.947036 5.67955576 -1.3125 4.625 C-2.50101563 4.24472656 -3.68953125 3.86445313 -4.9140625 3.47265625 C-5.82929687 3.17230469 -6.74453125 2.87195313 -7.6875 2.5625 C-7.6875 1.9025 -7.6875 1.2425 -7.6875 0.5625 C-4.59271121 -0.46909626 -3.16118607 -0.41232862 0 0 Z " fill="#66676B" transform="translate(939.6875,163.4375)"/>
<path d="M0 0 C-1.0372522 0.26478149 -1.0372522 0.26478149 -2.09545898 0.53491211 C-5.21040134 1.33219683 -8.32395541 2.13477494 -11.4375 2.9375 C-13.07041992 3.35418945 -13.07041992 3.35418945 -14.73632812 3.77929688 C-16.28803711 4.18051758 -16.28803711 4.18051758 -17.87109375 4.58984375 C-18.82943115 4.83597412 -19.78776855 5.08210449 -20.77514648 5.33569336 C-22.95220964 5.7937952 -22.95220964 5.7937952 -24 7 C-25.99958364 7.04080783 -28.00045254 7.04254356 -30 7 C-27.79545545 4.79545545 -26.77638612 4.50062418 -23.82421875 3.74609375 C-22.99599609 3.53146484 -22.16777344 3.31683594 -21.31445312 3.09570312 C-20.44755859 2.87849609 -19.58066406 2.66128906 -18.6875 2.4375 C-17.83220703 2.21642578 -16.97691406 1.99535156 -16.09570312 1.76757812 C-13.73416168 1.16210158 -11.36858729 0.57719158 -9 0 C-8.05769531 -0.23589844 -7.11539063 -0.47179687 -6.14453125 -0.71484375 C-3.7924648 -1.02759575 -2.26348486 -0.62813704 0 0 Z " fill="#A8150D" transform="translate(668,152)"/>
<path d="M0 0 C0.66 0.33 1.32 0.66 2 1 C1.32829194 4.8063457 0.27253436 8.35206816 -1 12 C-0.01 12 0.98 12 2 12 C2 13.65 2 15.3 2 17 C0.68 17.33 -0.64 17.66 -2 18 C-1.96519531 16.62714844 -1.96519531 16.62714844 -1.9296875 15.2265625 C-1.91164063 14.03804688 -1.89359375 12.84953125 -1.875 11.625 C-1.84019531 9.84996094 -1.84019531 9.84996094 -1.8046875 8.0390625 C-1.67133771 4.88846183 -1.67133771 4.88846183 -4 3 C-2.68 2.67 -1.36 2.34 0 2 C0 1.34 0 0.68 0 0 Z " fill="#F5F8F8" transform="translate(509,418)"/>
<path d="M0 0 C-0.33 0.66 -0.66 1.32 -1 2 C1.97 2 4.94 2 8 2 C8 2.66 8 3.32 8 4 C2.42289352 5.06795656 -2.39436958 4.82622671 -8 4 C-8 3.34 -8 2.68 -8 2 C-3.61016949 -1.20338983 -3.61016949 -1.20338983 0 0 Z " fill="#9C9C9D" transform="translate(260,250)"/>
<path d="M0 0 C2.97 0 5.94 0 9 0 C9 0.66 9 1.32 9 2 C11.31 2.33 13.62 2.66 16 3 C12.5647952 5.29013653 11.014669 5.17842973 7 5 C6.67 4.01 6.34 3.02 6 2 C4.02 2.33 2.04 2.66 0 3 C0 2.01 0 1.02 0 0 Z " fill="#191717" transform="translate(880,152)"/>
<path d="M0 0 C1.32 1.32 2.64 2.64 4 4 C0.7868736 6.14208427 -1.21065397 6.59687808 -5 7 C-5.66 6.67 -6.32 6.34 -7 6 C-2.25 1.125 -2.25 1.125 0 0 Z " fill="#B6B7B9" transform="translate(246,255)"/>
<path d="M0 0 C0.66 0.33 1.32 0.66 2 1 C1.39816251 3.02045442 0.72693904 5.02111039 0 7 C-0.99 7.495 -0.99 7.495 -2 8 C-1.67 9.65 -1.34 11.3 -1 13 C-1.99 13.66 -2.98 14.32 -4 15 C-3.91245449 13.24908981 -3.80426627 11.49920449 -3.6875 9.75 C-3.62949219 8.77546875 -3.57148437 7.8009375 -3.51171875 6.796875 C-2.95363476 3.74658389 -2.03630224 2.29288724 0 0 Z M-6 15 C-5.34 15.33 -4.68 15.66 -4 16 C-5.65 16.66 -7.3 17.32 -9 18 C-9 17.34 -9 16.68 -9 16 C-8.01 15.67 -7.02 15.34 -6 15 Z " fill="#6D6E6F" transform="translate(557,193)"/>
<path d="M0 0 C1.98 0.99 3.96 1.98 6 3 C5.67 3.66 5.34 4.32 5 5 C1.625 5.75 1.625 5.75 -2 6 C-2.99 5.34 -3.98 4.68 -5 4 C-3.35 2.68 -1.7 1.36 0 0 Z " fill="#AFB0B2" transform="translate(346,255)"/>
<path d="M0 0 C0.66 0.33 1.32 0.66 2 1 C1.67 1.66 1.34 2.32 1 3 C1.66 3.66 2.32 4.32 3 5 C-2.41538462 8.07692308 -2.41538462 8.07692308 -5.375 7.6875 C-5.91125 7.460625 -6.4475 7.23375 -7 7 C-4.66666667 4.66666667 -2.33333333 2.33333333 0 0 Z " fill="#C3C3C3" transform="translate(240,258)"/>
<path d="M0 0 C0.54269531 0.37640625 1.08539062 0.7528125 1.64453125 1.140625 C-1.66562969 2.98853038 -4.92720366 3.88603987 -8.60546875 4.765625 C-9.683125 5.02601563 -10.76078125 5.28640625 -11.87109375 5.5546875 C-12.6909375 5.74804688 -13.51078125 5.94140625 -14.35546875 6.140625 C-12.91094197 3.25157144 -10.93355986 2.75360571 -8.04296875 1.390625 C-7.07746094 0.92140625 -6.11195313 0.4521875 -5.1171875 -0.03125 C-2.35546875 -0.859375 -2.35546875 -0.859375 0 0 Z " fill="#8F1811" transform="translate(613.35546875,168.859375)"/>
<path d="M0 0 C3.37774562 0.61482561 5.47618303 1.85695846 8.1875 3.9375 C8.88230469 4.46214844 9.57710938 4.98679688 10.29296875 5.52734375 C12 7 12 7 13 9 C8.67535468 7.4274017 4.87821405 5.4611743 1 3 C0.67 2.01 0.34 1.02 0 0 Z " fill="#CFCFD0" transform="translate(342,251)"/>
<path d="M0 0 C1.22589844 0.15275391 1.22589844 0.15275391 2.4765625 0.30859375 C3.41628906 0.43427734 3.41628906 0.43427734 4.375 0.5625 C4.375 1.2225 4.375 1.8825 4.375 2.5625 C5.035 2.8925 5.695 3.2225 6.375 3.5625 C3.735 3.2325 1.095 2.9025 -1.625 2.5625 C-1.955 3.2225 -2.285 3.8825 -2.625 4.5625 C-3.945 4.2325 -5.265 3.9025 -6.625 3.5625 C-6.625 2.5725 -6.625 1.5825 -6.625 0.5625 C-4.10446405 -0.69776798 -2.7707902 -0.35624445 0 0 Z " fill="#3A393A" transform="translate(872.625,148.4375)"/>
<path d="M0 0 C0 0.66 0 1.32 0 2 C-0.94875 2.309375 -1.8975 2.61875 -2.875 2.9375 C-5.86080408 3.87394742 -5.86080408 3.87394742 -8 5 C-10.00800456 4.71887936 -12.01014051 4.38932033 -14 4 C-11.8553857 1.8553857 -10.98260002 1.55435397 -8.125 0.875 C-7.44695313 0.70742187 -6.76890625 0.53984375 -6.0703125 0.3671875 C-4 0 -4 0 0 0 Z " fill="#2C0100" transform="translate(623,169)"/>
<path d="M0 0 C4.29 0.66 8.58 1.32 13 2 C13 2.33 13 2.66 13 3 C7.39 3 1.78 3 -4 3 C-3.67 2.34 -3.34 1.68 -3 1 C-2.01 1.33 -1.02 1.66 0 2 C0 1.34 0 0.68 0 0 Z " fill="#B9BABA" transform="translate(1210,218)"/>
<path d="M0 0 C7.42857143 -0.28571429 7.42857143 -0.28571429 11 2 C10 3 10 3 7.93359375 3.09765625 C7.10988281 3.08605469 6.28617188 3.07445312 5.4375 3.0625 C4.61121094 3.05347656 3.78492188 3.04445312 2.93359375 3.03515625 C2.29550781 3.02355469 1.65742187 3.01195312 1 3 C0.67 2.01 0.34 1.02 0 0 Z " fill="#151112" transform="translate(893,156)"/>
<path d="M0 0 C0.33 0 0.66 0 1 0 C1.33 2.64 1.66 5.28 2 8 C2.99 8.33 3.98 8.66 5 9 C5 8.34 5 7.68 5 7 C6.32 7 7.64 7 9 7 C8.67 7.99 8.34 8.98 8 10 C5.66705225 10.04241723 3.33297433 10.04092937 1 10 C0 9 0 9 -0.09765625 6.93359375 C-0.08605469 6.10988281 -0.07445312 5.28617188 -0.0625 4.4375 C-0.05347656 3.61121094 -0.04445313 2.78492188 -0.03515625 1.93359375 C-0.02355469 1.29550781 -0.01195312 0.65742188 0 0 Z " fill="#98140F" transform="translate(927,182)"/>
<path d="M0 0 C0.99 0.66 1.98 1.32 3 2 C2.67 3.32 2.34 4.64 2 6 C-0.31 6.66 -2.62 7.32 -5 8 C-4.67 7.01 -4.34 6.02 -4 5 C-3.34 4.67 -2.68 4.34 -2 4 C-0.86649466 1.98330173 -0.86649466 1.98330173 0 0 Z " fill="#686B6E" transform="translate(593,161)"/>
<path d="M0 0 C0.99 1.32 1.98 2.64 3 4 C-3.75 8 -3.75 8 -6 8 C-6 7.01 -6 6.02 -6 5 C-4.68 5 -3.36 5 -2 5 C-1.34 3.35 -0.68 1.7 0 0 Z " fill="#8A8A8C" transform="translate(504,201)"/>
<path d="M0 0 C0 0.66 0 1.32 0 2 C3.465 1.505 3.465 1.505 7 1 C7 1.66 7 2.32 7 3 C5.37536158 3.05395478 3.75021459 3.09277195 2.125 3.125 C1.22007812 3.14820313 0.31515625 3.17140625 -0.6171875 3.1953125 C-3 3 -3 3 -5 1 C-3 0 -3 0 0 0 Z " fill="#090002" transform="translate(859,148)"/>
<path d="M0 0 C0.33 0 0.66 0 1 0 C1 5.28 1 10.56 1 16 C0.34 16 -0.32 16 -1 16 C-1.33 15.01 -1.66 14.02 -2 13 C-1.67 12.67 -1.34 12.34 -1 12 C-0.76572222 9.98405418 -0.58663876 7.961526 -0.4375 5.9375 C-0.35371094 4.83277344 -0.26992188 3.72804688 -0.18359375 2.58984375 C-0.12300781 1.73519531 -0.06242188 0.88054687 0 0 Z " fill="#FEEEED" transform="translate(842,422)"/>
<path d="M0 0 C0.66 0.33 1.32 0.66 2 1 C0 4 0 4 -3.125 4.6875 C-4.07375 4.790625 -5.0225 4.89375 -6 5 C-6.33 4.34 -6.66 3.68 -7 3 C-4.69631264 1.93347808 -2.35981813 0.93578995 0 0 Z " fill="#7D7D7F" transform="translate(511,184)"/>
<path d="M0 0 C4.75 0.75 4.75 0.75 7 3 C6.54545455 8.45454545 6.54545455 8.45454545 4 11 C4 8.03 4 5.06 4 2 C2.68 1.34 1.36 0.68 0 0 Z " fill="#A21612" transform="translate(936,173)"/>
<path d="M0 0 C0.8353125 0.556875 0.8353125 0.556875 1.6875 1.125 C4.05716353 2.29515863 4.05716353 2.29515863 6.75 1.125 C7.4925 0.75375 8.235 0.3825 9 0 C8.34 1.32 7.68 2.64 7 4 C4.36 4 1.72 4 -1 4 C-0.67 2.68 -0.34 1.36 0 0 Z " fill="#F7F7F7" transform="translate(812,417)"/>
<path d="M0 0 C0.66 0.66 1.32 1.32 2 2 C3.98821313 2.39764263 5.98944339 2.73775349 8 3 C8 3.33 8 3.66 8 4 C4.7 4.33 1.4 4.66 -2 5 C-1 1 -1 1 0 0 Z " fill="#F7F8F9" transform="translate(40,417)"/>
<path d="M0 0 C0.94875 0.350625 1.8975 0.70125 2.875 1.0625 C0.54285852 2.26878008 -1.62142139 3.2279738 -4.125 4.0625 C-4.455 2.7425 -4.785 1.4225 -5.125 0.0625 C-3.125 -0.9375 -3.125 -0.9375 0 0 Z " fill="#F6F7FC" transform="translate(845.125,417.9375)"/>
<path d="M0 0 C0.66 0 1.32 0 2 0 C2.33 1.32 2.66 2.64 3 4 C1.02 5.32 -0.96 6.64 -3 8 C-1.125 2.25 -1.125 2.25 0 0 Z " fill="#E2E2E2" transform="translate(357,329)"/>
<path d="M0 0 C0.33 0.99 0.66 1.98 1 3 C-0.70828921 5.10633718 -1.52148416 5.93801608 -4.26171875 6.29296875 C-5.06222656 6.25816406 -5.86273437 6.22335938 -6.6875 6.1875 C-7.49574219 6.16042969 -8.30398438 6.13335937 -9.13671875 6.10546875 C-9.75160156 6.07066406 -10.36648438 6.03585938 -11 6 C-10.67 5.34 -10.34 4.68 -10 4 C-8.906875 4.0825 -7.81375 4.165 -6.6875 4.25 C-2.96557142 4.41103961 -2.96557142 4.41103961 -1.0625 2 C-0.711875 1.34 -0.36125 0.68 0 0 Z " fill="#250000" transform="translate(938,187)"/>
<path d="M0 0 C1.32 0.66 2.64 1.32 4 2 C-1.2734375 5.22265625 -1.2734375 5.22265625 -3 6 C-3.66 5.67 -4.32 5.34 -5 5 C-3.35 3.35 -1.7 1.7 0 0 Z " fill="#D6D6D6" transform="translate(231,265)"/>
<path d="M0 0 C0.66 0.33 1.32 0.66 2 1 C0.515 2.485 0.515 2.485 -1 4 C-0.67 4.66 -0.34 5.32 0 6 C-1.98 6.66 -3.96 7.32 -6 8 C-5.67 7.01 -5.34 6.02 -5 5 C-4.34 5 -3.68 5 -3 5 C-2.5359375 4.0409375 -2.5359375 4.0409375 -2.0625 3.0625 C-1 1 -1 1 0 0 Z " fill="#D3D3D3" transform="translate(984,263)"/>
<path d="M0 0 C1.485 0.99 1.485 0.99 3 2 C3.1875 5.125 3.1875 5.125 3 8 C1.02 8.99 1.02 8.99 -1 10 C-0.649375 8.906875 -0.29875 7.81375 0.0625 6.6875 C1.33039454 3.09079627 1.33039454 3.09079627 0 0 Z " fill="#5E5F60" transform="translate(957,176)"/>
<path d="M0 0 C2.97 0 5.94 0 9 0 C9 0.66 9 1.32 9 2 C4.545 2.495 4.545 2.495 0 3 C0 2.01 0 1.02 0 0 Z " fill="#393738" transform="translate(880,152)"/>
<path d="M0 0 C2.97 0.33 5.94 0.66 9 1 C8.34 1.66 7.68 2.32 7 3 C3.375 2.625 3.375 2.625 0 2 C0 1.34 0 0.68 0 0 Z " fill="#090304" transform="translate(871,151)"/>
<path d="M0 0 C2.97 0.495 2.97 0.495 6 1 C6 1.66 6 2.32 6 3 C4.02 3.66 2.04 4.32 0 5 C-0.33 4.01 -0.66 3.02 -1 2 C-0.67 1.34 -0.34 0.68 0 0 Z " fill="#707173" transform="translate(534,186)"/>
<path d="M0 0 C0.66 0.66 1.32 1.32 2 2 C1.01 3.485 1.01 3.485 0 5 C-1.32 4.67 -2.64 4.34 -4 4 C-4 3.34 -4 2.68 -4 2 C-2.68 1.34 -1.36 0.68 0 0 Z " fill="#AEAFB1" transform="translate(246,255)"/>
</svg>
